<svg xmlns="http://www.w3.org/2000/svg" viewBox="0 0 206.04 39.28"><defs><style>.cls-1{fill:#3b8dff;}</style></defs><title>Recurso 5</title><g id="Capa_2" data-name="Capa 2"><g id="Capa_1-2" data-name="Capa 1"><path class="cls-1" d="M6.47,5.16Q6.47,8,3.26,8T0,5.16A2.69,2.69,0,0,1,1,3a3.34,3.34,0,0,1,2.25-.79,3.33,3.33,0,0,1,2.26.82A2.66,2.66,0,0,1,6.47,5.16ZM6.3,11.51c0,1.2-.07,3-.22,5.45s-.22,4.25-.22,5.47,0,2.85.07,5.12.07,4,.07,5.1c0,.33-.14.49-.42.49H1c-.33,0-.49-.32-.49-1,0-1.08,0-2.7.08-4.86s.08-3.8.08-4.89S.59,19.38.41,17,.14,12.68.14,11.46c0-.26.16-.4.49-.4a10.58,10.58,0,0,1,1.3.12,10.79,10.79,0,0,0,1.33.12,10.67,10.67,0,0,0,1.32-.12,10.79,10.79,0,0,1,1.33-.12Q6.3,11.06,6.3,11.51Z"/><path class="cls-1" d="M31.59,32.72c0,.34-.15.51-.46.51-.52,0-1.29,0-2.31,0l-2.31,0c-.28,0-.42-.23-.42-.68,0-.77,0-1.93.07-3.49s.07-2.74.07-3.52c0-.62,0-1.56,0-2.8s0-2.18,0-2.8a6.87,6.87,0,0,0-.77-3.77c-.63-.88-1.78-1.32-3.47-1.32a6.89,6.89,0,0,0-3.26,1.32c-1.47.92-2.2,1.74-2.2,2.46V32.65c0,.39-.15.58-.45.58-.5,0-1.25,0-2.25,0l-2.25,0c-.33,0-.49-.18-.49-.54,0-1.24,0-3.09.06-5.56s.06-4.32.06-5.57A38.19,38.19,0,0,0,10.1,12.3,1,1,0,0,1,10,12c0-.16.1-.27.31-.33L13,11.24c1.68-.28,2.56-.41,2.64-.41s.15.12.18.37a15.22,15.22,0,0,0,.54,2.93c.82-.64,1.89-1.43,3.21-2.39a9.16,9.16,0,0,1,4.76-1.5q4.41,0,6,2.56,1.19,1.88,1.19,6.07,0,.72,0,2.22c0,1,0,1.75,0,2.25,0,1.05,0,2.61.05,4.69S31.59,31.67,31.59,32.72Z"/><path class="cls-1" d="M56.7,32.72c0,.34-.16.51-.47.51-.52,0-1.29,0-2.31,0l-2.31,0c-.28,0-.42-.23-.42-.68,0-.77,0-1.93.07-3.49s.07-2.74.07-3.52c0-.62,0-1.56,0-2.8s0-2.18,0-2.8a6.87,6.87,0,0,0-.77-3.77c-.63-.88-1.78-1.32-3.47-1.32a6.89,6.89,0,0,0-3.26,1.32c-1.47.92-2.2,1.74-2.2,2.46V32.65c0,.39-.15.58-.45.58-.5,0-1.25,0-2.25,0l-2.25,0c-.33,0-.49-.18-.49-.54,0-1.24,0-3.09.06-5.56s.06-4.32.06-5.57A37.7,37.7,0,0,0,35.2,12.3a1.46,1.46,0,0,1-.07-.3c0-.16.1-.27.31-.33l2.68-.43c1.68-.28,2.56-.41,2.64-.41s.15.12.19.37a14.46,14.46,0,0,0,.53,2.93c.82-.64,1.89-1.43,3.22-2.39a9.13,9.13,0,0,1,4.75-1.5q4.41,0,6,2.56,1.19,1.88,1.19,6.07,0,.72,0,2.22c0,1,0,1.75,0,2.25,0,1.05,0,2.61,0,4.69S56.7,31.67,56.7,32.72Z"/><path class="cls-1" d="M82.38,21.77a11.88,11.88,0,0,1-3.21,8.37,11.06,11.06,0,0,1-16.29,0,11.77,11.77,0,0,1-3.21-8.34,11.77,11.77,0,0,1,3.21-8.34,11.16,11.16,0,0,1,16.27,0A11.64,11.64,0,0,1,82.38,21.77Zm-4.94.05A7.15,7.15,0,0,0,75.68,17,5.84,5.84,0,0,0,71,14.81a5.94,5.94,0,0,0-4.66,2.11,7.21,7.21,0,0,0-1.76,4.9A7.22,7.22,0,0,0,66.4,26.7a6,6,0,0,0,9.28,0A7.3,7.3,0,0,0,77.44,21.82Z"/><path class="cls-1" d="M108.21.49q0,3-.27,9.06c-.18,4-.27,7-.27,9q0,9.26.4,14l0,.31q0,.23-.63.3a8.65,8.65,0,0,1-1.26,0l-.92-.07a9.9,9.9,0,0,0-1,.07,9.9,9.9,0,0,1-1,.07c-.22,0-.35-.54-.39-1.63a5.17,5.17,0,0,0-.17-1.65,1.6,1.6,0,0,0-.36.3,9.88,9.88,0,0,1-15.16-.14A12.25,12.25,0,0,1,84.26,22a12.5,12.5,0,0,1,2.9-8.39,10,10,0,0,1,8-3.56,8.14,8.14,0,0,1,5.16,1.73c.67.58,1.33,1.17,2,1.76a.32.32,0,0,0,.19-.33V5.58c0-.52,0-1.3-.07-2.35S102.3,1.4,102.3.87s.13-.57.38-.57q.87,0,2.58-.15T107.81,0C108.08,0,108.21.16,108.21.49Zm-5.86,21.33a7.63,7.63,0,0,0-1.73-4.94A5.71,5.71,0,0,0,96,14.6a5.91,5.91,0,0,0-4.75,2.25,7.6,7.6,0,0,0-1.79,5.06,7.12,7.12,0,0,0,1.86,4.9A5.93,5.93,0,0,0,96,29a5.74,5.74,0,0,0,4.64-2.23A7.63,7.63,0,0,0,102.35,21.82Z"/><path class="cls-1" d="M132.23,20.6a2.26,2.26,0,0,1-1.5,2.32q-1,.38-14.5,1.38a5.27,5.27,0,0,0,2.27,3.52,6.66,6.66,0,0,0,4,1.38,10.83,10.83,0,0,0,6.8-2.39l.75-.61a.4.4,0,0,1,.24.05,18.22,18.22,0,0,1,.88,1.63,12.94,12.94,0,0,1,.82,1.7c0,.09-.12.27-.37.54a12.86,12.86,0,0,1-17.51.41,11.72,11.72,0,0,1-3.23-8.66A12.5,12.5,0,0,1,114,13.45a10.22,10.22,0,0,1,8-3.72A9.54,9.54,0,0,1,129.35,13,10.89,10.89,0,0,1,132.23,20.6Zm-5.57-1.43a4.7,4.7,0,0,0-1.54-3.44,4.81,4.81,0,0,0-3.46-1.5A5.19,5.19,0,0,0,117.83,16a5.45,5.45,0,0,0-1.67,3.89c0,.33.28.49.84.49a58.66,58.66,0,0,0,8.3-.7C126.2,19.52,126.66,19.36,126.66,19.17Z"/><path class="cls-1" d="M146.48,26a6.69,6.69,0,0,1-2.78,5.6,9.93,9.93,0,0,1-6.17,1.92,8.38,8.38,0,0,1-1.59-.07c-.27-.12-.4-.51-.4-1.15a12.68,12.68,0,0,0-.13-1.54,12.86,12.86,0,0,1-.13-1.53c0-.2.14-.33.42-.4a3.11,3.11,0,0,1,.87,0l.7.08c3,0,4.43-.91,4.43-2.72,0-.86-.65-1.65-1.94-2.37a38.25,38.25,0,0,1-3.63-2.13,5.47,5.47,0,0,1-1.95-4.36,6.45,6.45,0,0,1,2.65-5.49,10,10,0,0,1,6-1.76.53.53,0,0,1,.48.31,16.9,16.9,0,0,1,.58,1.9,12.09,12.09,0,0,1,.44,1.92q0,.25-.45.33l-3,.4c-1.21.32-1.81,1-1.81,2,0,.7.63,1.41,1.9,2.13a21.24,21.24,0,0,1,3.56,2.27A6.19,6.19,0,0,1,146.48,26Z"/><path class="cls-1" d="M156,5.16Q156,8,152.74,8t-3.26-2.88a2.69,2.69,0,0,1,1-2.14,3.38,3.38,0,0,1,2.25-.79,3.31,3.31,0,0,1,2.26.82A2.63,2.63,0,0,1,156,5.16Zm-.16,6.35c0,1.2-.08,3-.22,5.45s-.23,4.25-.23,5.47,0,2.85.07,5.12.07,4,.07,5.1c0,.33-.14.49-.42.49h-4.57c-.33,0-.49-.32-.49-1,0-1.08,0-2.7.08-4.86s.08-3.8.08-4.89-.09-3.05-.27-5.48-.26-4.27-.26-5.49c0-.26.16-.4.49-.4a10.75,10.75,0,0,1,1.3.12,10.67,10.67,0,0,0,1.32.12,10.79,10.79,0,0,0,1.33-.12,10.51,10.51,0,0,1,1.32-.12C155.66,11.06,155.79,11.21,155.79,11.51Z"/><path class="cls-1" d="M181.08,11.34q0,2.82-.05,8.45T181,28.24c0,3.72-.79,6.46-2.39,8.23s-4.34,2.81-8,2.81a16.27,16.27,0,0,1-8.6-2c-.35-.22-.52-.41-.52-.57,0,.18.24-1,.7-3.47q.08-.39.33-.39a.72.72,0,0,1,.31.11,14,14,0,0,0,7,2,6.71,6.71,0,0,0,3.85-1,3.84,3.84,0,0,0,1.75-3.4c0-.33,0-1.06-.09-2.2a8.18,8.18,0,0,1-6.61,3.16,9.11,9.11,0,0,1-7.12-3.12A10.66,10.66,0,0,1,159,21a11.48,11.48,0,0,1,2.58-7.57,8.8,8.8,0,0,1,7.13-3.33,7.33,7.33,0,0,1,6.14,3c.25.33.43.49.54.49s.18-.14.18-.42,0-.53,0-1,0-.78,0-1c0-.94.09-1.41.28-1.41s1,.15,2.53.44,2.37.46,2.51.52S181.08,11,181.08,11.34ZM175.45,21A7,7,0,0,0,174,16.55a5.21,5.21,0,0,0-8.22,0A6.94,6.94,0,0,0,164.37,21a6.94,6.94,0,0,0,1.45,4.41,5,5,0,0,0,4.08,2,5,5,0,0,0,4.08-2A6.9,6.9,0,0,0,175.45,21Z"/><path class="cls-1" d="M206,32.72c0,.34-.16.51-.47.51-.52,0-1.28,0-2.31,0l-2.31,0c-.28,0-.42-.23-.42-.68,0-.77,0-1.93.07-3.49s.07-2.74.07-3.52c0-.62,0-1.56,0-2.8s0-2.18,0-2.8a6.77,6.77,0,0,0-.78-3.77c-.62-.88-1.78-1.32-3.47-1.32a6.86,6.86,0,0,0-3.25,1.32c-1.47.92-2.21,1.74-2.21,2.46V32.65c0,.39-.15.58-.44.58-.5,0-1.25,0-2.25,0l-2.25,0c-.33,0-.5-.18-.5-.54,0-1.24,0-3.09.06-5.56s.06-4.32.06-5.57a38.2,38.2,0,0,0-1-9.22,1,1,0,0,1-.07-.3q0-.24.3-.33l2.68-.43c1.68-.28,2.56-.41,2.64-.41s.16.12.19.37a15.22,15.22,0,0,0,.54,2.93c.81-.64,1.88-1.43,3.21-2.39a9.16,9.16,0,0,1,4.76-1.5q4.39,0,6,2.56,1.2,1.88,1.2,6.07c0,.48,0,1.22,0,2.22s0,1.75,0,2.25c0,1.05,0,2.61,0,4.69S206,31.67,206,32.72Z"/></g></g></svg>